<svg width="2687" height="1086.7" version="1.1" viewBox="0 0 2687 1086.7" xmlns="http://www.w3.org/2000/svg">
<g transform="translate(-576.98 -1423.5)">
<path d="m996 2507.6c-4.4895-0.8742-11.85-5.5141-16.356-10.311l-8.1932-8.7212 18.656-23.246c19.601-24.424 46.723-82.787 46.66-100.41-0.019-5.5969-4.2017-32.64-9.2925-60.096s-10.491-62.541-12-77.967c-2.439-24.929-4.3872-30.036-17.525-45.934-8.6653-10.486-19.358-30.558-25.844-48.513l-11.063-30.626-4.3596 25.035c-6.227 35.758-5.4554 52.689 3.7613 82.529 7.1919 23.285 7.6323 29.151 3.8499 51.284-10.596 62.008-11.873 78.246-6.6305 84.353 6.0489 7.0468 14.012 34.187 16.582 56.512 1.7012 14.78 0.9317 16.506-9.8478 22.08-6.4312 3.3257-18.166 6.0468-26.077 6.0468-9.4352 0-19.631 3.6333-29.633 10.56-11.935 8.2651-19.49 10.51-34.766 10.328-19.86-0.2362-40.854-7.7886-43.395-15.611-1.5217-4.6834 20.552-27.006 40.382-40.838 11.879-8.2859 39.175-46.334 39.175-54.608 0-2.2152-5.3158-27.329-11.813-55.81s-12.397-63.878-13.111-78.662c-2.3468-48.611-8.6065-88.036-16.847-106.11-4.4614-9.7853-10.186-31.138-12.722-47.449-2.559-16.46-6.7599-30.482-9.4406-31.511-2.6564-1.0194-8.7504 0.8927-13.542 4.2491-11.488 8.0465-23.084 7.7148-34.326-0.982-5.0368-3.8965-14.753-8.1691-21.591-9.4947-11.238-2.1784-12.648-1.4048-14.666 8.0445-6.1028 28.572-15.373 46.108-34.114 64.531-35.823 35.214-76.157 36.374-113 3.2503-54.743-49.219-49.346-145.72 10.501-187.79 14.758-10.372 19.555-11.62 44.672-11.62 25.143 0 29.906 1.2423 44.743 11.67 21.41 15.048 35.183 35.885 44.317 67.05 6.2491 21.321 8.7042 25.125 16.838 26.093 15.969 1.9002 25.879-16.343 32.408-59.657 3.1069-20.612 5.6634-46.116 5.6812-56.676 0.035-21.567 14.387-78.788 28.787-114.78 5.2411-13.101 12.204-39.158 15.473-57.904s8.5951-39.672 11.836-46.5c3.2404-6.8287 22.187-27.403 42.104-45.72 19.917-18.317 36.213-34.76 36.213-36.541 0-1.7801-6.048-5.2326-13.44-7.6722-11.922-3.9346-13.508-6.0285-14.04-18.538-0.3298-7.7562-1.1663-19.286-1.8585-25.622s-1.2409-17.006-1.2192-23.711c0.023-6.7051-1.4349-13.102-3.2368-14.216-6.3636-3.9329 1.4277-41.693 10.042-48.669 9.5024-7.6945 49.547-15.652 62.729-12.464 13.147 3.1786 29.307 19.613 34.369 34.951 5.1048 15.468 2.3154 51.05-6.2059 79.163-7.2397 23.885-3.2713 31.021 26.828 48.242 33.115 18.946 58.778 40.937 67.325 57.69 4.5446 8.9082 12.663 43.472 19.443 82.78l11.641 67.486-15.335 14.882c-16.39 15.906-16.144 15.08-23.072 77.461-2.2718 20.458-7.7662 46.378-12.21 57.6-8.0458 20.32-8.0822 22.314-1.1894 65.117l2.2533 13.993 25.548 2.4464c14.051 1.3456 31.646 3.3445 39.101 4.442l13.553 1.9955 6.4386-27.435c16.599-70.727 57.086-111.77 104.94-106.38 20.001 2.2543 38.662 15.356 58.285 40.919 40.046 52.169 39.949 162.83-0.1939 221.64-53.488 78.357-140.84 46.692-163.43-59.246-2.387-11.192-4.3401-26.989-4.3401-35.104 0-17.406-0.7196-17.702-51.84-21.371l-34.56-2.48-9.0123 13.553c-8.5715 12.89-8.9471 16.176-7.68 67.178 1.2144 48.878 2.1185 54.688 10.213 65.629 17.65 23.858 19.587 73.205 6.0019 152.9-4.7471 27.85-5.2171 38.463-1.9359 43.717 2.3832 3.8162 4.3594 10.85 4.3915 15.631 0.031 4.7806 2.4115 16.468 5.2877 25.972 4.4452 14.689 4.4217 18.864-0.157 27.84-2.9625 5.808-7.0281 10.56-9.0346 10.56-2.0066 0-9.2882 6.1978-16.181 13.773-17.453 19.18-47.814 30.263-70.696 25.808zm-143.63-545.5c-0.093-32.762-1.0188-39.725-4.4885-33.742-9.4426 16.281-11.181 41.266-4.0731 58.554 3.7171 9.0414 7.1904 16.445 7.7184 16.453 0.528 0.01 0.9075-18.562 0.8432-41.266zm687.48 540.48c-7.6055-7.6055-7.68-12.8-7.68-535.68s0.074-528.07 7.68-535.68c5.12-5.12 12.8-7.68 23.04-7.68s17.92 2.56 23.04 7.68c7.6055 7.6055 7.68 12.8 7.68 535.68s-0.074 528.07-7.68 535.68c-5.12 5.12-12.8 7.68-23.04 7.68s-17.92-2.56-23.04-7.68zm486.92 5.6439c-1.298-1.298 1.2572-12.292 5.6782-24.431l8.0382-22.071-12.5-34.665-12.5-34.665-26.074 11.818-1.1034 30.945c-1.0261 28.777-1.7086 31.031-9.7434 32.172-8.5329 1.2118-8.64 0.6761-8.64-43.2 0-41.867 0.4426-44.427 7.68-44.427 4.5863 0 7.68 2.56 7.68 6.3552 0 5.9135 0.488 5.9135 7.0224 0 4.1387-3.7456 13.509-6.3552 22.818-6.3552h15.796l8.6573 26.88c4.7615 14.784 9.705 26.88 10.986 26.88s6.2241-12.096 10.986-26.88c7.5943-23.58 9.8088-26.88 18.036-26.88 5.1581 0 9.3522 1.296 9.32 2.88-0.031 1.584-10.173 30.528-22.535 64.32-17.555 47.986-24.093 61.686-29.86 62.562-4.0606 0.6171-8.4449 0.06-9.7429-1.2381zm-269.32-42.764c-1.408-1.408-2.56-29.056-2.56-61.44v-58.88l27.84 0.015c46.955 0.023 66.808 20.594 63.536 65.832-1.8806 25.999-10.418 40.216-30.208 50.308-12.957 6.607-53.299 9.4746-58.607 4.166zm57.134-26.066c7.7677-7.7676 9.4255-13.215 9.4255-30.972 0-21.063-4.5749-35.481-13.055-41.143-2.3239-1.5517-10.705-2.8477-18.625-2.88l-14.4-0.059v84.48h13.614c9.335 0 16.577-2.9628 23.04-9.4255zm43.986-15.534v-44.16h19.2v88.32h-19.2zm37.075 37.138c-14.418-15.932-3.9507-39.858 20.664-47.233 16.539-4.9551 18.234-7.5841 9.5413-14.798-4.2118-3.4955-8.6779-3.6687-17.28-0.67-10.755 3.7493-11.6 3.3889-11.6-4.9455 0-10.1 6.3842-13.651 24.54-13.651 21.59 0 26.814 7.1382 28.5 38.941 0.8239 15.542 3.051 29.9 4.9491 31.907 5.623 5.9437 3.933 17.472-2.5612 17.472-3.3069 0-9.5404-1.8881-13.852-4.1957-5.6697-3.0344-9.0012-3.0344-12.036 0-6.5277 6.5277-23.833 4.9429-30.864-2.8267zm31.277-12.946c6.4537-6.4537 5.8303-22.272-0.8777-22.272-6.7853 0-17.554 10.376-17.554 16.914 0 10.256 10.486 13.304 18.432 5.3577zm208.13-16.512c0-28.787-1.1388-36.48-5.4005-36.48-3.51 0-4.6974-2.6885-3.3921-7.68 1.1046-4.224 3.5348-7.68 5.4005-7.68 1.8656 0 3.3921-5.6635 3.3921-12.586 0-18.698 9.3023-29.654 25.178-29.654 7.2723 0 13.196 1.296 13.164 2.88-0.1044 5.1153-5.532 11.058-12.421 13.6-4.3769 1.6149-6.72 6.5382-6.72 14.12 0 9.8566 1.4713 11.64 9.6 11.64 7.04 0 9.6 2.048 9.6 7.68s-2.56 7.68-9.6 7.68c-9.5663 0-9.6 0.1279-9.6 36.48 0 36.352-0.035 36.48-9.6 36.48-9.5663 0-9.6-0.1279-9.6-36.48zm58.984 30.873c-11.964-8.3801-18.014-26.547-15.694-47.13 2.594-23.014 15.742-35.583 37.223-35.583 36.451 0 50.836 56.679 20.451 80.58-11.552 9.087-30.666 10.058-41.981 2.133zm30.982-15.787c7.2406-7.2406 8.24-40.144 1.4263-46.958-11.984-11.984-29.952 1.2222-29.952 22.013 0 15.117 8.8191 30.979 17.224 30.979 2.8973 0 7.9834-2.7154 11.302-6.0343zm40.594-22.499c0-41.867 0.4426-44.427 7.68-44.427 4.5863 0 7.68 2.56 7.68 6.3552 0 5.9135 0.488 5.9135 7.0224 0 9.8157-8.8832 19.858-8.1122 19.858 1.5246 0 5.2797-3.7516 9.1875-11.37 11.843-11.209 3.9073-11.386 4.4083-12.48 35.32-1.0338 29.202-1.7038 31.441-9.7501 32.584-8.5329 1.2118-8.64 0.6761-8.64-43.2zm104.83 36.368c-16.872-10.287-25.427-28.427-25.427-53.915 0-43.817 31.11-71.981 70.06-63.426 9.4043 2.0655 11.82 4.5833 11.82 12.318 0 9.0959-0.8971 9.5539-13.925 7.1099-30.208-5.6671-50.674 17.044-46.012 51.059 3.0548 22.287 14.71 35.178 31.806 35.178 12.035 0 12.771-0.7742 12.771-13.44 0-11.031-1.4247-13.44-7.9471-13.44-6.045 0-7.6534-2.0679-6.72-8.64 1.0201-7.1824 3.9803-8.8392 17.547-9.8208l16.32-1.1808v30.493c0 28.376-0.5998 30.654-8.64 32.808-16.916 4.5334-39.509 2.301-51.654-5.1043zm102.53-19.926c0-25.278-1.3679-29.96-17.28-59.151-9.504-17.435-17.28-32.73-17.28-33.99 0-1.2589 4.2951-2.2889 9.5447-2.2889 7.8406 0 11.676 4.2215 21.48 23.644 13.095 25.942 12.291 26.093 28.714-5.4039 7.4612-14.31 11.565-18.24 19.046-18.24 5.2444 0 9.5353 0.8804 9.5353 1.9565s-7.776 16.338-17.28 33.916c-15.9 29.408-17.28 34.157-17.28 59.484 0 26.799-0.2527 27.524-9.6 27.524-9.3447 0-9.6-0.73-9.6-27.45zm58.918 9.2105c1.269-10.032 4.3653-37.68 6.8808-61.44 4.3759-41.333 4.9592-43.2 13.496-43.2 6.3965 0 10.454 3.5331 14.333 12.48 2.9758 6.864 8.4407 19.392 12.144 27.84l6.7339 15.36 12.75-27.84c9.6664-21.106 14.619-27.84 20.474-27.84 4.8978 0 8.4047 3.1609 9.5855 8.64 1.6496 7.6541 13.644 106.48 13.644 112.42 0 1.2841-4.752 1.788-10.56 1.1198-10.426-1.1997-10.61-1.7013-14.537-39.615l-3.9773-38.4-27.56 53.534-26.591-57.374-2.791 34.56c-3.6457 45.144-4.6274 48-16.497 48-9.4979 0-9.7566-0.6268-7.5288-18.24zm-673.32-95.04c0-7.68 1.92-9.6 9.6-9.6s9.6 1.92 9.6 9.6-1.92 9.6-9.6 9.6-9.6-1.92-9.6-9.6zm1123.2-215.11c-67.866-12.58-129.69-57.082-160.14-115.28-50.739-96.963-54.49-265.51-8.469-380.54 17.564-43.904 35.822-70.989 72.223-107.14 28.205-28.011 41.24-37.78 67.585-50.657 56.794-27.758 113.64-36.74 178.56-28.209 43.366 5.6984 65.123 12.046 93.943 27.406 35.801 19.082 36.645 20.893 21.877 46.949l-12.472 22.005-12.9-9.5173c-42.217-31.146-147.53-42.158-207.57-21.702-52.732 17.967-98.062 58.694-125.11 112.41-50.438 100.16-53.556 269.19-6.6722 361.71 11.97 23.621 40.004 53.876 61.71 66.596 31.681 18.566 59.945 24.795 112.31 24.752 43.326-0.034 101.97-6.7572 132.48-15.185l11.52-3.1816 2.3593-45.817c1.2977-25.199 2.5937-77.353 2.88-115.9l0.5207-70.08h57.6v264.11l-16.572 7.7899c-57.98 27.254-195.39 42.495-265.67 29.468zm-1226.9-339.61v-342.48l125.76 1.5723c139.62 1.7457 147.1 2.822 200.64 28.904 21.043 10.25 36.578 21.814 57.678 42.935 60.362 60.421 84.378 135.33 84.364 263.15-0.023 199.65-63.041 307.35-197.04 336.77-29.581 6.4941-54.195 8.0483-153.32 9.6815l-118.08 1.9455zm239.51 277.74c38.542-7.3112 52.438-13.042 77.49-31.957 33.811-25.528 58.634-71.084 73.243-134.42 3.5944-15.583 6.5654-54.282 7.8247-101.92 1.7899-67.712 1.0927-81.344-5.8917-115.2-15.184-73.603-52.062-129.21-102.6-154.72-43.271-21.838-58.529-24.694-142.7-26.704l-77.76-1.8576v578.05l69.68-2.6915c38.324-1.4803 83.645-5.3407 100.71-8.5787zm351.85-277.9v-341.76h355.69l-1.4683 24c-0.8075 13.2-2.1595 26.16-3.0045 28.8-1.1925 3.7259-33.356 4.8-143.74 4.8h-142.2v257.28h266l-2.442 17.816c-1.343 9.7988-2.4419 22.736-2.4419 28.749v10.933l-259.2 2.0221-1.0035 154.56-1.0036 154.56h-65.193z" stroke-width="3.84"/>
</g>
</svg>
